# xmcd
#
# Track frame offsets:
#	180
#	18796
#	26834
#	42119
#	61963
#	81380
#	93694
#	99400
#	110470
#	129922
#	138802
#	151588
#	162921
#	173325
#	184302
#	197232
#	212052
#	218371
#	231494
#	239562
#
# Disc length: 3463 seconds
#
# Revision: 0
# Processed by: cddbd v1.5.1PL0 Copyright (c) Steve Scherf et al.
# Submitted via: dBpowerAMP V4.0
#
DISCID=060d8514
DTITLE=Jimmy Shand - 20 Golden Tracks
DYEAR=1900
DGENRE=Country
TTITLE0=Jig
TTITLE1=Reel
TTITLE2=Waltz
TTITLE3=Jig
TTITLE4=Reel
TTITLE5=Waltz
TTITLE6=Reel
TTITLE7=Highland Scottish
TTITLE8=Jig
TTITLE9=Reel
TTITLE10=Gaelic Waltz
TTITLE11=Gau Gordons
TTITLE12=Polka
TTITLE13=Serenade
TTITLE14=Jig
TTITLE15=Waltz Countyr Dance
TTITLE16=Air
TTITLE17=Hornpipes
TTITLE18=Two Step
TTITLE19=Reel
EXTD=
EXTT0=
EXTT1=
EXTT2=
EXTT3=
EXTT4=
EXTT5=
EXTT6=
EXTT7=
EXTT8=
EXTT9=
EXTT10=
EXTT11=
EXTT12=
EXTT13=
EXTT14=
EXTT15=
EXTT16=
EXTT17=
EXTT18=
EXTT19=
PLAYORDER=
